<svg id="Layer_1" data-name="Layer 1" xmlns="http://www.w3.org/2000/svg" viewBox="0 0 500 338.01"><defs><style>.cls-1{fill:none;}.cls-2{fill:#de9e48;}.cls-3{fill:#372c2e;}</style></defs><polygon class="cls-1" points="65.47 138.36 187.5 138.36 175.8 53.16 65.47 53.16 65.47 138.36"/><polygon class="cls-1" points="65.47 285.31 207.69 285.31 194.58 189.9 65.47 189.9 65.47 285.31"/><polygon class="cls-2" points="65.47 285.31 65.47 189.9 194.58 189.9 187.5 138.36 65.47 138.36 65.47 53.16 175.8 53.16 168.5 0 0 0 0 338.01 214.93 338.01 207.69 285.31 65.47 285.31"/><polygon class="cls-3" points="440.11 0 417.12 189.44 415.5 203.6 413.41 189.67 385.08 0 338.42 0 311.73 188.28 309.63 202.21 308.01 188.97 285.49 0 284.38 0 225.83 0 233.13 53.16 244.83 138.36 251.91 189.9 265.02 285.31 272.26 338.01 285.07 338.01 331.23 338.01 359.55 155.54 362.1 138.36 364.65 155.54 394.14 338.01 453.11 338.01 500 0 440.11 0"/></svg>