<?xml version="1.0" standalone="no"?>
<!DOCTYPE svg PUBLIC "-//W3C//DTD SVG 20010904//EN"
 "http://www.w3.org/TR/2001/REC-SVG-20010904/DTD/svg10.dtd">
<svg version="1.0" xmlns="http://www.w3.org/2000/svg"
 width="2084.000000pt" height="2084.000000pt" viewBox="0 0 2084.000000 2084.000000"
 preserveAspectRatio="xMidYMid meet">
<metadata>
Created by potrace 1.14, written by Peter Selinger 2001-2017
</metadata>
<g transform="translate(0.000000,2084.000000) scale(0.100000,-0.100000)"
fill="#000000" stroke="none">
<path d="M0 10413 l0 -7043 4481 0 c2464 0 4478 3 4476 8 -3 4 -8 38 -12 77
-4 38 -8 72 -10 75 -2 3 -6 30 -10 60 -8 71 -12 105 -20 160 -4 25 -8 59 -10
75 -8 58 -36 260 -40 286 -3 14 -7 41 -9 60 -2 19 -7 58 -11 88 -4 30 -8 63
-11 74 -2 10 -6 45 -10 76 -3 31 -8 64 -10 74 -1 10 -10 70 -19 135 -8 64 -18
132 -20 150 -3 18 -7 54 -10 80 -3 26 -8 54 -10 62 -2 8 -7 40 -10 70 -3 30
-7 66 -10 80 -2 14 -7 45 -10 70 -3 25 -8 63 -11 85 -3 22 -7 51 -9 65 -3 25
-13 94 -20 140 -2 14 -7 50 -10 80 -4 30 -8 57 -11 61 -2 4 -1336 7 -2964 6
l-2960 -2 0 1988 c0 1885 1 1987 18 1988 9 0 1219 1 2688 1 l2671 1 -3 21 c-1
12 -5 48 -9 81 -4 33 -9 69 -11 80 -2 11 -11 74 -19 140 -9 66 -18 131 -20
145 -2 14 -7 45 -10 70 -3 25 -10 72 -15 105 -5 33 -12 81 -15 107 -2 26 -7
63 -10 82 -3 20 -7 51 -10 69 -7 53 -14 100 -20 142 -3 22 -8 60 -11 85 -3 25
-7 56 -9 70 -2 14 -9 61 -15 106 -6 44 -12 89 -14 100 -2 10 -7 48 -11 84 -4
36 -8 67 -10 70 -2 3 -6 34 -10 70 -3 36 -8 72 -10 80 -2 8 -7 36 -10 62 -3
26 -7 62 -10 80 -2 18 -12 85 -20 148 -9 63 -18 124 -20 135 -4 20 -12 20
-2545 19 l-2540 -2 0 1774 0 1774 2298 2 c1524 2 2297 6 2296 13 -1 6 -4 28
-7 50 -3 22 -11 78 -17 125 -6 47 -13 96 -15 110 -2 14 -6 45 -10 70 -3 25 -8
56 -10 70 -2 14 -7 52 -11 85 -3 33 -8 62 -9 65 -2 3 -6 34 -10 70 -4 36 -9
73 -11 84 -2 10 -6 44 -10 75 -3 31 -8 64 -10 74 -1 10 -10 70 -19 135 -23
175 -23 173 -31 227 -3 28 -8 57 -9 65 -2 9 -6 43 -10 75 -4 33 -9 69 -11 80
-2 11 -8 56 -14 100 -6 44 -12 90 -14 102 -3 12 -7 46 -10 75 -4 29 -8 64 -10
78 -3 14 -7 45 -10 70 -4 25 -8 56 -10 70 -3 14 -7 48 -11 75 -9 76 -15 117
-21 146 l-5 26 -3509 0 -3510 0 0 -7044z"/>
<path d="M9415 17406 c3 -28 8 -62 10 -76 3 -14 7 -41 9 -60 9 -71 18 -136 21
-160 4 -25 8 -54 20 -141 3 -25 8 -57 10 -70 2 -13 7 -46 10 -72 5 -45 38
-285 51 -372 4 -22 7 -51 9 -65 3 -34 17 -131 21 -155 2 -11 7 -44 10 -74 3
-30 8 -64 10 -75 2 -12 11 -75 19 -141 16 -122 22 -161 30 -205 2 -14 7 -45
10 -70 7 -64 15 -131 20 -160 2 -14 6 -45 10 -70 3 -25 8 -56 10 -70 2 -14 7
-43 9 -65 10 -79 37 -275 40 -292 2 -10 7 -43 10 -73 4 -30 8 -66 10 -80 3
-14 7 -47 10 -75 4 -27 9 -61 11 -75 3 -14 7 -43 10 -65 7 -61 26 -197 31
-227 8 -55 12 -84 19 -143 4 -32 8 -66 10 -75 1 -8 6 -37 10 -65 7 -53 8 -59
25 -188 6 -45 13 -93 15 -107 2 -14 7 -47 10 -75 3 -27 7 -57 10 -65 2 -8 6
-42 10 -75 3 -33 8 -69 10 -80 4 -20 15 -100 20 -145 1 -14 5 -43 9 -65 7 -42
12 -80 21 -156 3 -25 7 -56 10 -68 2 -13 7 -49 11 -80 3 -31 7 -63 9 -71 1 -8
6 -40 10 -70 4 -30 9 -62 10 -71 2 -9 6 -40 10 -70 3 -30 8 -65 10 -79 2 -14
7 -45 10 -70 4 -25 8 -56 10 -70 5 -34 13 -95 21 -150 3 -25 8 -58 10 -75 2
-16 7 -49 9 -73 3 -23 7 -55 9 -70 3 -15 10 -65 16 -112 6 -47 13 -97 16 -112
9 -60 13 -85 20 -148 4 -36 8 -67 9 -70 1 -3 5 -30 9 -60 4 -30 9 -66 11 -80
2 -14 15 -110 30 -215 14 -104 37 -272 51 -372 14 -99 27 -196 29 -215 2 -18
8 -67 15 -108 6 -41 13 -94 16 -116 3 -23 7 -53 9 -65 3 -13 7 -49 10 -79 4
-30 8 -62 10 -70 2 -8 7 -39 10 -69 4 -30 8 -61 10 -70 1 -9 6 -45 10 -81 4
-36 9 -68 11 -71 2 -3 6 -32 9 -65 3 -32 10 -86 15 -119 5 -33 12 -82 15 -110
3 -27 8 -61 10 -75 9 -47 14 -85 20 -133 3 -26 14 -112 25 -190 11 -78 22
-159 25 -179 3 -21 7 -57 11 -80 3 -24 7 -50 9 -58 2 -8 6 -42 10 -75 3 -33 8
-67 10 -75 2 -8 6 -40 10 -71 3 -31 7 -65 9 -75 2 -11 7 -41 10 -69 4 -27 9
-63 11 -80 2 -16 7 -52 10 -79 3 -27 8 -52 9 -55 2 -3 7 -40 11 -81 4 -41 8
-77 10 -80 1 -3 6 -30 9 -61 4 -31 8 -65 10 -75 2 -11 7 -41 10 -69 10 -79 18
-138 22 -160 2 -11 6 -40 9 -65 6 -48 13 -99 19 -140 2 -14 7 -47 11 -75 3
-27 9 -66 11 -85 3 -19 7 -48 9 -65 14 -111 26 -194 30 -215 2 -14 11 -79 20
-145 8 -66 22 -165 30 -220 8 -55 17 -116 19 -135 14 -117 18 -145 21 -160 2
-9 6 -41 10 -71 7 -58 13 -99 20 -139 2 -14 7 -49 10 -79 4 -30 8 -61 10 -70
1 -9 6 -41 9 -72 4 -31 9 -67 11 -80 3 -13 7 -42 10 -64 3 -22 7 -56 10 -75 2
-19 7 -57 10 -85 4 -27 8 -57 10 -65 2 -8 7 -37 10 -65 3 -27 7 -61 10 -75 2
-14 7 -49 10 -79 4 -30 8 -61 10 -70 1 -9 6 -38 9 -66 10 -76 18 -138 22 -159
2 -10 6 -44 10 -75 3 -31 8 -65 10 -76 4 -19 8 -50 19 -134 2 -18 7 -50 9 -70
3 -20 8 -56 11 -81 3 -25 8 -56 10 -70 2 -14 7 -43 10 -65 2 -22 9 -71 14
-110 6 -38 13 -92 16 -120 3 -27 10 -75 15 -105 5 -30 11 -77 15 -105 3 -27 7
-61 10 -75 2 -14 7 -45 10 -70 3 -25 7 -56 9 -70 3 -14 7 -47 11 -75 3 -27 8
-63 10 -80 3 -16 7 -46 9 -65 3 -19 7 -51 10 -70 3 -19 12 -89 21 -155 9 -66
18 -130 20 -141 2 -12 6 -47 10 -78 l7 -56 1229 0 1229 0 5 23 c6 26 25 146
31 197 2 19 8 58 13 85 6 28 13 72 16 98 4 27 8 58 11 70 2 12 6 39 9 62 7 49
13 84 25 155 5 30 12 73 15 95 3 22 12 81 20 130 7 50 16 110 20 135 3 25 8
56 10 70 3 14 7 39 9 55 3 17 7 44 10 60 3 17 12 75 21 130 8 55 17 111 19
125 3 14 12 75 21 135 9 61 18 124 21 140 7 44 10 62 44 280 17 110 33 216 36
235 3 19 8 49 10 65 3 17 9 55 14 85 6 30 12 75 15 100 3 25 7 56 10 70 3 14
7 40 10 58 3 17 7 44 9 60 3 15 7 45 11 67 3 23 7 50 9 61 2 12 7 45 11 75 4
30 8 56 10 59 1 3 6 32 10 65 3 32 8 62 10 65 2 3 6 28 9 55 4 28 8 61 11 74
2 12 7 42 9 65 5 39 10 70 21 126 3 14 7 43 10 65 4 22 10 65 15 95 5 30 12
75 15 100 3 25 8 56 10 70 3 14 7 41 10 60 3 19 10 60 15 90 5 30 12 75 15
100 7 52 15 105 20 129 1 9 6 36 9 61 6 40 30 191 41 260 8 46 36 234 41 265
2 17 6 41 8 55 3 14 8 45 11 70 3 25 12 83 20 130 8 47 17 103 20 125 3 23 7
52 10 65 3 13 7 42 10 65 3 22 13 83 21 135 8 52 17 111 20 130 3 19 16 103
29 185 13 83 26 170 30 195 3 25 8 52 10 60 2 8 6 37 9 63 3 26 15 103 26 170
10 67 22 142 25 167 4 24 8 47 10 50 1 3 6 30 9 61 4 31 9 67 11 80 6 31 23
139 40 254 3 22 8 51 11 65 2 14 6 41 9 60 3 19 7 44 9 56 2 12 7 45 11 75 4
30 8 56 10 59 2 3 6 30 10 60 3 30 12 93 20 140 8 47 17 103 20 125 3 23 7 50
9 60 2 11 9 56 16 100 6 44 13 91 15 105 3 14 11 72 20 130 15 103 19 130 30
200 19 125 35 242 35 252 1 35 19 -24 25 -82 4 -36 8 -67 10 -70 2 -3 6 -29
10 -59 4 -30 9 -63 11 -75 2 -11 6 -38 9 -61 7 -53 16 -115 21 -140 2 -11 11
-67 19 -125 8 -58 17 -116 19 -130 3 -14 7 -43 11 -65 3 -22 10 -65 15 -95 5
-30 12 -73 15 -95 4 -22 8 -47 10 -55 2 -8 7 -37 11 -65 3 -27 8 -59 10 -70 3
-11 7 -36 10 -55 3 -19 9 -60 14 -90 9 -54 20 -125 25 -165 2 -11 8 -47 14
-80 6 -33 13 -77 17 -99 3 -21 7 -48 10 -59 2 -12 6 -39 9 -62 8 -52 24 -154
29 -180 2 -11 6 -41 10 -66 4 -25 9 -57 11 -70 2 -13 6 -41 9 -63 4 -21 8 -41
10 -45 2 -3 7 -30 10 -59 3 -29 8 -63 11 -75 2 -12 7 -40 10 -62 3 -22 7 -47
10 -55 2 -8 6 -35 9 -60 3 -25 8 -56 11 -70 3 -14 7 -38 9 -55 3 -16 7 -43 10
-60 3 -16 8 -50 11 -75 3 -25 8 -52 10 -60 2 -8 6 -31 9 -50 13 -90 42 -265
50 -310 5 -26 15 -84 22 -135 2 -16 13 -84 24 -150 11 -66 22 -136 24 -155 3
-19 8 -46 10 -60 3 -13 8 -42 11 -65 3 -22 10 -65 15 -95 16 -97 19 -114 25
-155 3 -22 8 -51 10 -65 3 -14 7 -41 10 -60 13 -79 16 -98 26 -155 6 -33 12
-69 14 -80 5 -40 16 -111 25 -165 5 -30 11 -71 14 -90 3 -19 7 -44 10 -55 2
-11 7 -40 10 -65 6 -46 22 -138 29 -175 3 -11 8 -42 11 -68 4 -27 9 -56 11
-65 1 -10 6 -39 9 -67 4 -27 9 -57 11 -65 2 -8 6 -32 9 -52 3 -21 9 -55 12
-75 3 -21 14 -92 26 -158 11 -66 21 -129 22 -140 2 -11 6 -40 10 -65 4 -25 10
-58 12 -75 3 -16 9 -55 14 -85 5 -30 12 -73 15 -95 5 -35 12 -79 30 -182 3
-16 8 -48 11 -73 3 -25 8 -47 9 -50 2 -3 7 -33 10 -65 4 -33 9 -62 10 -65 2
-3 6 -26 10 -50 3 -25 8 -58 11 -75 3 -16 7 -41 9 -55 2 -14 23 -140 46 -280
22 -140 43 -266 45 -280 1 -14 7 -52 13 -85 5 -33 12 -78 16 -100 3 -22 19
-119 35 -215 16 -96 31 -191 34 -210 3 -19 8 -46 10 -60 3 -14 7 -42 10 -62 3
-21 9 -55 12 -75 3 -21 16 -104 30 -184 13 -81 24 -149 24 -153 0 -11 2460 -7
2461 4 1 6 2 13 3 18 1 4 6 34 10 67 4 32 9 67 11 75 2 9 6 41 9 71 3 30 8 63
10 75 2 12 7 45 11 75 3 30 8 61 10 69 2 8 7 40 10 70 3 30 8 66 10 80 2 14 6
45 10 70 6 47 15 114 20 140 1 8 6 40 10 70 3 30 8 66 10 80 2 14 6 43 9 65 8
58 36 256 41 285 2 14 7 50 10 80 2 30 7 66 10 80 2 14 7 43 10 65 3 22 7 51
10 65 2 14 7 48 10 75 4 28 8 64 11 80 2 17 6 52 10 79 3 27 7 57 9 66 2 9 6
41 10 71 3 30 8 61 10 69 2 8 7 40 10 70 3 30 8 66 10 80 3 14 7 43 10 65 4
36 9 75 20 145 2 14 7 48 10 75 3 28 8 61 10 75 2 14 7 45 10 70 4 25 8 56 10
70 2 14 9 61 15 106 6 44 12 89 14 100 2 10 7 44 10 75 4 31 8 66 10 76 3 11
7 44 11 73 4 29 8 60 10 69 1 9 6 41 9 72 4 31 8 65 10 75 2 11 7 42 10 69 8
58 10 73 32 220 9 61 17 124 19 140 2 17 6 49 10 73 3 24 8 58 9 75 2 18 6 46
9 62 3 17 9 53 12 80 6 46 10 76 20 145 2 14 11 79 20 145 9 66 18 131 20 145
2 14 6 47 10 73 4 27 8 57 10 66 2 10 6 42 9 72 3 30 8 68 11 84 3 17 7 44 10
60 3 17 7 53 10 80 4 28 8 61 10 75 2 14 6 45 10 70 11 77 14 94 19 135 3 22
13 90 21 150 9 61 18 128 21 150 2 22 7 51 9 65 5 26 11 74 20 149 3 23 7 55
9 70 3 14 8 46 11 71 3 25 8 56 10 70 2 14 9 63 15 110 6 47 13 96 15 110 2
14 7 45 10 70 3 25 8 56 10 70 2 14 6 44 9 68 3 23 9 61 12 85 3 23 7 53 9 67
2 14 7 45 10 69 3 23 7 55 9 70 3 14 7 49 11 76 3 28 8 57 10 65 2 8 6 40 10
71 3 31 7 65 9 75 2 11 7 42 10 69 4 28 9 61 11 75 2 14 6 48 10 75 6 47 11
85 20 145 2 14 9 63 15 110 6 47 13 96 15 110 2 14 6 45 10 70 3 25 8 56 10
70 2 14 7 45 10 70 3 25 10 74 15 110 5 36 12 81 14 100 3 19 10 73 16 120 6
47 13 96 15 110 12 82 27 188 31 214 2 17 8 65 14 106 13 92 17 121 25 185 4
28 9 61 11 75 3 14 7 42 9 63 3 32 13 105 30 217 2 14 7 45 11 70 3 25 7 56 9
70 4 39 16 131 20 150 2 9 6 39 9 66 4 27 8 63 10 79 2 17 7 46 10 65 6 40 12
82 21 155 3 28 8 61 11 75 2 14 7 43 9 65 6 46 14 109 20 145 2 14 6 45 10 70
3 25 8 56 10 70 2 14 7 49 10 79 4 30 8 62 10 71 2 9 6 41 10 71 3 30 11 83
16 119 6 36 12 81 15 100 2 19 7 53 11 75 3 22 7 47 8 55 13 100 20 156 46
340 16 118 34 249 40 290 6 41 12 86 14 100 13 96 17 124 20 139 2 10 6 42 9
72 3 30 8 63 10 74 2 11 7 43 10 70 4 28 9 61 11 75 2 14 6 48 10 75 3 28 10
75 15 105 5 30 12 78 15 105 3 28 7 61 10 75 5 35 14 97 20 150 4 25 8 56 10
70 2 14 7 45 10 70 3 25 8 56 10 70 7 51 15 106 20 150 4 25 8 56 10 70 3 23
30 212 40 285 2 17 7 53 10 80 4 28 8 57 10 65 2 8 7 42 11 75 3 33 8 69 10
80 2 11 7 47 10 80 4 33 8 63 10 66 2 4 6 27 9 50 3 24 7 60 10 79 3 19 8 58
11 85 3 28 8 58 10 69 2 10 6 44 10 75 3 31 8 58 9 61 2 3 6 34 10 70 4 36 9
68 11 71 2 3 -559 6 -1247 6 l-1249 0 -5 -21 c-2 -12 -7 -43 -10 -71 -3 -27
-8 -70 -11 -95 -3 -25 -7 -58 -9 -75 -10 -84 -17 -133 -20 -162 -3 -17 -9 -73
-15 -125 -6 -51 -13 -104 -15 -118 -2 -14 -13 -106 -25 -205 -11 -99 -23 -196
-25 -215 -6 -37 -12 -83 -20 -165 -3 -27 -8 -66 -11 -85 -2 -19 -6 -53 -8 -75
-2 -22 -7 -56 -10 -75 -3 -19 -8 -57 -11 -85 -3 -27 -8 -63 -10 -80 -3 -16 -7
-52 -9 -80 -4 -44 -17 -153 -31 -265 -2 -19 -7 -57 -10 -85 -4 -27 -8 -61 -10
-75 -2 -14 -6 -45 -9 -70 -3 -25 -15 -119 -26 -210 -11 -91 -22 -185 -25 -210
-3 -25 -8 -65 -10 -90 -2 -25 -6 -59 -9 -75 -3 -17 -8 -55 -11 -85 -8 -73 -16
-139 -20 -170 -3 -14 -7 -47 -10 -75 -6 -58 -13 -115 -20 -165 -3 -19 -7 -60
-10 -90 -3 -30 -10 -84 -15 -120 -5 -36 -12 -92 -15 -125 -4 -33 -8 -71 -11
-85 -2 -14 -6 -50 -10 -80 -3 -30 -7 -67 -10 -81 -4 -29 -11 -86 -19 -164 -3
-27 -8 -66 -10 -85 -3 -19 -7 -55 -10 -80 -3 -25 -7 -61 -10 -80 -2 -19 -7
-60 -10 -90 -3 -30 -8 -66 -10 -80 -2 -14 -7 -50 -10 -80 -4 -30 -8 -66 -10
-80 -2 -14 -6 -50 -10 -80 -6 -58 -12 -103 -20 -172 -3 -24 -8 -60 -10 -80 -3
-21 -7 -55 -10 -75 -2 -21 -7 -65 -11 -98 -3 -33 -7 -67 -9 -75 -3 -16 -11
-80 -20 -165 -5 -44 -15 -125 -30 -245 -8 -63 -15 -118 -30 -250 -3 -25 -7
-56 -10 -70 -2 -14 -7 -52 -10 -85 -3 -33 -10 -96 -16 -140 -5 -44 -12 -96
-14 -115 -2 -19 -9 -71 -14 -115 -6 -44 -13 -105 -16 -135 -4 -30 -8 -66 -10
-80 -2 -14 -6 -50 -10 -80 -9 -84 -15 -132 -20 -160 -2 -14 -7 -54 -10 -90 -3
-36 -8 -78 -11 -94 -4 -15 -7 -45 -9 -65 -3 -39 -14 -131 -20 -171 -2 -14 -7
-50 -10 -80 -5 -53 -8 -75 -20 -170 -3 -25 -8 -62 -10 -82 -3 -21 -7 -55 -10
-75 -2 -21 -7 -57 -10 -80 -5 -44 -9 -78 -20 -173 -4 -30 -8 -66 -10 -80 -2
-14 -7 -54 -10 -90 -3 -36 -8 -78 -10 -95 -2 -16 -7 -59 -11 -95 -3 -36 -8
-72 -9 -80 -2 -8 -4 -31 -5 -50 -1 -56 -16 -16 -29 80 -6 47 -13 96 -15 110
-3 14 -7 41 -10 60 -3 19 -8 51 -10 70 -3 19 -15 96 -26 170 -12 74 -23 153
-26 175 -3 22 -9 65 -14 95 -5 30 -12 75 -15 100 -3 25 -8 59 -11 75 -10 64
-13 82 -19 125 -3 25 -10 72 -15 105 -5 33 -12 78 -15 100 -4 22 -8 54 -11 70
-9 53 -12 78 -24 160 -7 44 -14 89 -16 100 -2 11 -6 43 -9 70 -3 28 -8 57 -10
65 -2 8 -7 38 -11 65 -8 66 -11 87 -19 137 -4 24 -8 55 -11 71 -2 15 -6 39 -8
55 -3 15 -12 77 -21 137 -9 61 -18 121 -20 135 -2 14 -7 48 -10 75 -4 28 -8
57 -11 66 -3 9 -6 34 -9 55 -2 22 -6 53 -9 69 -2 17 -10 66 -16 110 -7 44 -14
87 -15 97 -2 9 -6 38 -10 65 -7 52 -12 87 -19 131 -3 15 -10 63 -16 107 -7 44
-13 87 -15 95 -1 8 -6 40 -10 70 -4 30 -8 62 -10 70 -10 62 -19 124 -29 200
-4 30 -9 62 -11 70 -5 20 -14 78 -30 205 -4 33 -9 65 -10 70 -6 32 -15 85 -19
115 -7 45 -14 94 -31 205 -8 50 -17 113 -21 140 -3 28 -8 58 -9 67 -2 9 -11
68 -20 130 -9 62 -18 127 -21 143 -3 17 -7 41 -9 55 -8 55 -18 116 -20 131 -2
9 -6 40 -10 70 -3 30 -8 61 -10 69 -2 8 -7 40 -10 70 -4 30 -8 57 -10 60 -2 3
-6 30 -9 60 -3 30 -8 65 -11 78 -2 13 -9 58 -15 100 -16 111 -18 124 -24 157
-6 37 -14 95 -21 155 -3 25 -8 52 -10 60 -2 8 -7 35 -10 60 -3 25 -8 56 -10
70 -2 14 -7 48 -11 75 -3 28 -8 59 -10 70 -2 11 -6 36 -8 55 -3 19 -8 51 -11
70 -3 19 -8 50 -10 68 -10 65 -13 88 -19 122 -4 19 -9 51 -11 70 -3 32 -7 63
-20 145 -3 17 -7 48 -11 70 -3 22 -14 96 -25 164 -19 121 -21 137 -34 236 -3
28 -8 57 -10 65 -2 8 -7 35 -10 60 -3 25 -10 72 -15 105 -5 33 -12 78 -15 100
-11 75 -26 170 -30 195 -2 14 -7 45 -9 70 -3 25 -7 54 -10 65 -4 22 -16 96
-21 135 -10 73 -17 124 -21 143 -2 12 -6 40 -9 62 -3 22 -7 54 -10 70 -13 80
-37 236 -40 260 -1 11 -3 29 -4 41 l-1 21 -974 0 -975 0 -6 -41 c-4 -23 -9
-54 -11 -71 -2 -16 -6 -41 -9 -55 -2 -14 -7 -49 -10 -79 -4 -30 -8 -62 -10
-71 -2 -9 -6 -41 -10 -71 -3 -30 -8 -61 -10 -69 -2 -8 -6 -37 -10 -65 -11 -89
-24 -183 -31 -219 -2 -10 -6 -44 -9 -75 -4 -31 -8 -63 -10 -71 -3 -8 -7 -37
-10 -65 -3 -27 -10 -75 -15 -105 -5 -30 -12 -79 -15 -109 -4 -30 -9 -63 -11
-75 -2 -11 -6 -36 -9 -56 -2 -19 -18 -129 -34 -245 -17 -115 -33 -229 -36
-253 -3 -24 -7 -53 -10 -65 -2 -12 -7 -44 -10 -72 -3 -27 -12 -93 -20 -145
-17 -113 -23 -160 -30 -220 -3 -25 -8 -55 -10 -67 -3 -12 -7 -41 -10 -65 -3
-24 -14 -101 -24 -173 -11 -71 -22 -152 -26 -180 -7 -55 -14 -107 -20 -145 -3
-14 -10 -61 -15 -105 -12 -87 -19 -136 -25 -175 -2 -14 -7 -47 -10 -75 -3 -27
-10 -75 -15 -105 -5 -30 -12 -75 -15 -100 -8 -54 -15 -106 -20 -140 -2 -14
-11 -79 -20 -145 -9 -66 -18 -131 -20 -145 -2 -14 -7 -47 -11 -75 -3 -27 -8
-59 -10 -69 -2 -11 -8 -56 -14 -100 -6 -45 -13 -92 -15 -106 -2 -14 -7 -45
-10 -70 -3 -25 -8 -52 -10 -60 -2 -8 -6 -40 -10 -71 -3 -31 -7 -65 -9 -75 -2
-11 -7 -44 -11 -74 -4 -30 -9 -62 -10 -70 -2 -8 -6 -37 -9 -65 -4 -27 -9 -61
-11 -75 -2 -14 -6 -45 -9 -70 -3 -25 -8 -54 -10 -66 -2 -12 -7 -45 -11 -75 -3
-30 -8 -65 -10 -79 -3 -14 -7 -45 -10 -70 -3 -25 -7 -56 -10 -70 -3 -14 -8
-45 -11 -70 -3 -25 -7 -56 -9 -70 -2 -14 -7 -45 -10 -70 -3 -25 -8 -56 -10
-70 -2 -14 -9 -61 -15 -105 -6 -44 -13 -91 -15 -105 -2 -14 -7 -47 -11 -75 -3
-27 -8 -57 -9 -66 -2 -9 -6 -40 -10 -70 -3 -30 -8 -61 -10 -69 -2 -8 -7 -40
-10 -70 -3 -30 -8 -62 -10 -70 -2 -8 -7 -39 -10 -69 -4 -30 -8 -61 -10 -70 -1
-9 -6 -41 -10 -71 -4 -30 -9 -63 -11 -74 -2 -10 -6 -44 -10 -75 -3 -31 -8 -65
-10 -76 -3 -11 -7 -40 -10 -65 -5 -44 -10 -80 -19 -130 -2 -14 -7 -45 -10 -70
-10 -83 -18 -135 -21 -155 -3 -11 -7 -38 -9 -60 -6 -47 -11 -84 -25 -180 -20
-146 -35 -251 -45 -315 -3 -19 -8 -53 -10 -75 -6 -47 -26 -183 -30 -205 -1 -8
-6 -40 -10 -70 -4 -30 -9 -64 -11 -75 -2 -11 -6 -36 -8 -55 -3 -19 -8 -53 -11
-75 -4 -22 -8 -51 -10 -65 -12 -81 -17 -117 -20 -130 -2 -8 -4 -28 -4 -44 -1
-16 -4 -27 -7 -24 -5 6 -10 35 -19 118 -2 25 -7 56 -9 70 -3 14 -8 52 -11 85
-3 33 -8 71 -10 85 -4 27 -8 64 -25 205 -6 50 -13 106 -15 125 -3 19 -7 58 -9
85 -3 28 -7 66 -10 85 -3 19 -10 78 -16 130 -6 52 -13 106 -15 120 -3 22 -7
55 -20 170 -2 19 -7 54 -10 76 -3 23 -7 62 -10 88 -2 26 -6 59 -9 74 -3 15 -8
58 -11 97 -4 38 -8 72 -10 75 -2 3 -6 39 -9 80 -4 41 -9 89 -11 105 -8 50 -14
97 -20 155 -3 30 -8 71 -10 90 -2 19 -9 71 -14 115 -6 44 -13 105 -16 135 -4
30 -8 66 -10 80 -2 14 -6 52 -10 85 -3 33 -12 114 -21 180 -8 66 -17 140 -20
165 -9 84 -14 120 -20 163 -3 23 -7 58 -9 77 -1 19 -7 73 -14 120 -6 47 -13
112 -16 145 -3 33 -8 71 -10 85 -3 14 -7 48 -10 75 -3 28 -8 66 -10 85 -3 19
-9 76 -15 125 -15 131 -21 177 -25 205 -2 14 -6 52 -10 85 -3 33 -8 71 -9 85
-2 14 -7 52 -11 85 -3 33 -8 71 -11 85 -2 14 -7 54 -10 88 -3 35 -7 71 -9 80
-3 15 -14 108 -20 172 -5 47 -23 191 -30 240 -2 14 -6 52 -10 85 -5 56 -9 89
-20 175 -3 19 -7 58 -10 85 -3 28 -10 84 -15 125 -5 41 -11 96 -14 123 -10 80
-17 141 -21 167 -2 14 -7 57 -11 95 -4 39 -8 72 -9 75 -1 3 -5 39 -9 80 -5 41
-10 82 -11 90 -2 8 -6 44 -10 80 -3 36 -8 76 -10 90 -4 23 -18 142 -31 250 -3
25 -7 61 -9 80 -3 19 -7 58 -10 85 -3 28 -10 84 -15 125 -5 41 -12 100 -15
130 -3 30 -8 62 -10 70 -2 8 -7 49 -10 90 -3 41 -8 82 -10 90 -2 8 -6 42 -10
75 -7 72 -15 141 -20 175 -2 14 -7 52 -10 85 -4 33 -8 71 -10 85 -2 14 -7 52
-10 85 -4 33 -8 71 -10 85 -2 14 -7 50 -10 80 -3 30 -12 105 -20 165 -8 61
-17 138 -20 173 -4 35 -8 71 -10 80 -1 9 -6 45 -10 78 -3 34 -9 84 -13 110
l-7 49 -1243 1 -1242 1 5 -51z"/>
</g>
</svg>
